<?xml version="1.0" ?><svg id="Слой_1" style="enable-background:new 0 0 512 512;" version="1.1" viewBox="0 0 512 512" xml:space="preserve" xmlns="http://www.w3.org/2000/svg" xmlns:xlink="http://www.w3.org/1999/xlink"><style type="text/css">
	.st0{fill:#234F77;}
	.st1{fill:#0939B2;}
	.st2{fill:#BA0000;}
	.st3{fill:#006BCC;}
	.st4{fill:#E02828;}
	.st5{fill:#1C6C99;}
	.st6{fill:#11AAED;}
	.st7{fill:#132AD3;}
	.st8{fill:#FF8500;}
	.st9{fill:url(#SVGID_1_);}
	.st10{fill:url(#SVGID_2_);}
	.st11{fill:url(#SVGID_3_);}
</style><g id="XMLID_1_"><g><path class="st0" d="M256,8.4c136.8,0,247.6,110.9,247.6,247.6S392.8,503.6,256,503.6S8.4,392.8,8.4,256S119.2,8.4,256,8.4z     M352,209.9c0-18.2,0-36.4,0-54.6c0-3.3-2.7-6-6-6c-17.6,0-35.2,0-52.8,0c-3.3,0-6-2.7-6-6c0-23.2,0-46.5,0-69.7    c0-3.8-3.6-6.7-7.3-5.8c-25.5,5.8-51.1,11.7-76.6,17.5c-2.7,0.6-4.7,3-4.7,5.8v52.3c0,3.3-2.7,6-6,6c-8.9,0-17.8,0-26.6,0    c-3.3,0-6,2.7-6,6v54.6c0,3.3,2.7,6,6,6c8.9,0,17.8,0,26.6,0c3.3,0,6,2.7,6,6v112.9c0,41,8.3,69,25,86.2    c14.3,14.9,38.6,25,67.8,25c22.7,0,42.2-2.4,54.6-6.2c2.5-0.8,4.3-3.1,4.3-5.8c-0.2-19-0.3-38.1-0.5-57.1c0-3.6-3.2-6.4-6.8-5.9    c-5.6,0.7-12.2,1.3-20.1,1.3c-27.4,0-35.7-16.1-35.7-51.1c0-33.1,0-66.2,0-99.3c0-3.3,2.7-6,6-6c17.6,0,35.2,0,52.8,0    C349.4,215.9,352,213.2,352,209.9z"/></g></g></svg>